# xmcd
#
# Track frame offsets:
#	150
#	16942
#	29744
#	50473
#	66535
#	87835
#	105287
#	123044
#	137373
#	153893
#	171925
#	194872
#
# Disc length: 2832 seconds
#
# Revision: 1
# Processed by: cddbd v1.5PL3 Copyright (c) Steve Scherf et al.
# Submitted via: CDex 1.50Beta5
#
DISCID=9c0b0e0c
DTITLE=SURFACE - Fate
DYEAR=1900
DGENRE=Pop
TTITLE0=ゴーイング my 上へ
TTITLE1=なあなあ -Fate mix-
TTITLE2=switch
TTITLE3=でてくるなよ
TTITLE4=君の声で 君のすべてで...
TTITLE5=縁
TTITLE6=愛じゃない
TTITLE7=偶然=必然
TTITLE8=まぁいいや
TTITLE9=Tell me
TTITLE10=たまり場
TTITLE11=ヌイテル?
EXTD=
EXTT0=
EXTT1=
EXTT2=
EXTT3=
EXTT4=
EXTT5=
EXTT6=
EXTT7=
EXTT8=
EXTT9=
EXTT10=
EXTT11=
PLAYORDER=
